<svg width="240" height="240" viewBox="0 0 240 240" fill="none" xmlns="http://www.w3.org/2000/svg">
<path fill-rule="evenodd" clip-rule="evenodd" d="M120 235C183.513 235 235 183.513 235 120C235 56.4873 183.513 5 120 5C56.4873 5 5 56.4873 5 120C5 183.513 56.4873 235 120 235ZM120 240C186.274 240 240 186.274 240 120C240 53.7258 186.274 0 120 0C53.7258 0 0 53.7258 0 120C0 186.274 53.7258 240 120 240Z" fill="url(#paint0_linear_4980_679)"/>
<path d="M117.63 155.152C112.958 155.152 108.318 154.544 103.71 153.328C99.1017 152.048 95.1977 150.256 91.9977 147.952L98.0457 136.048C100.606 137.904 103.582 139.376 106.974 140.464C110.366 141.552 113.79 142.096 117.246 142.096C121.15 142.096 124.222 141.328 126.462 139.792C128.702 138.256 129.822 136.144 129.822 133.456C129.822 130.896 128.83 128.88 126.846 127.408C124.862 125.936 121.662 125.2 117.246 125.2H110.142V114.928L128.862 93.7121L130.59 99.28H95.3577V86.8H142.398V96.8801L123.774 118.096L115.902 113.584H120.414C128.67 113.584 134.91 115.44 139.134 119.152C143.358 122.864 145.47 127.632 145.47 133.456C145.47 137.232 144.478 140.784 142.494 144.112C140.51 147.376 137.47 150.032 133.374 152.08C129.278 154.128 124.03 155.152 117.63 155.152Z" fill="white"/>
<defs>
<linearGradient id="paint0_linear_4980_679" x1="0" y1="123.228" x2="240" y2="123.228" gradientUnits="userSpaceOnUse">
<stop stop-color="#00B3FF"/>
<stop offset="1" stop-color="#5200FF"/>
</linearGradient>
</defs>
</svg>
