<svg width="206" height="15" viewBox="0 0 206 15" fill="none" xmlns="http://www.w3.org/2000/svg">
<path d="M22.8179 1.83191C19.9832 1.83191 17.9082 3.83729 17.9082 6.56816C17.9082 9.29902 19.982 11.3044 22.8179 11.3044C25.6537 11.3044 27.7275 9.29902 27.7275 6.56816C27.6921 3.83729 25.6525 1.83191 22.8179 1.83191ZM22.7483 9.47243C21.0543 9.47243 19.9478 8.29751 19.9478 6.56816C19.9478 4.83881 21.0543 3.66389 22.7483 3.66389C24.4764 3.66389 25.5487 4.8046 25.5487 6.56816C25.5487 8.29751 24.4422 9.47243 22.7483 9.47243Z" fill="white"/>
<path d="M8.12417 6.36047C9.12686 5.94524 10.0257 4.97793 10.0257 3.56001C10.0257 1.55463 8.43559 0.206299 6.11878 0.206299H0V12.8945H6.25798C8.71281 12.8945 10.2688 11.5119 10.2688 9.40276C10.2334 8.05443 9.33448 6.80991 8.12417 6.36047ZM1.97 1.90144H5.80736C7.12148 1.90144 7.95076 2.62692 7.95076 3.73342C7.95076 4.83992 7.12148 5.53118 5.80736 5.53118H1.97V1.90144ZM5.87696 11.2005H1.97V7.29474H5.87696C7.29488 7.29474 8.19377 8.05561 8.19377 9.26474C8.19377 10.475 7.29488 11.2005 5.87696 11.2005Z" fill="white"/>
<path d="M35.7783 0.947327C35.7783 0.489628 36.1499 0.118042 36.6076 0.118042H46.1084C46.5649 0.118042 46.9353 0.487269 46.9377 0.943789C46.9401 1.40385 46.5673 1.77779 46.1084 1.77779H36.6076C36.1499 1.77779 35.7783 1.40621 35.7783 0.947327Z" fill="white"/>
<path d="M35.7783 12.3249C35.7783 11.8672 36.1499 11.4956 36.6076 11.4956H46.1084C46.5649 11.4956 46.9353 11.8648 46.9377 12.3214C46.9401 12.7814 46.5673 13.1554 46.1084 13.1554H36.6076C36.1499 13.1542 35.7783 12.7826 35.7783 12.3249Z" fill="white"/>
<path d="M51.6529 7.43887H45.1708C44.6954 7.43887 44.312 7.04841 44.3215 6.57302C44.3309 6.1106 44.7084 5.74019 45.1708 5.74019L51.6529 5.73547C52.12 5.73547 52.4999 6.11178 52.5034 6.58009V6.58481C52.5058 7.05431 52.1248 7.43887 51.6529 7.43887Z" fill="white"/>
<path d="M151.47 0.207642H149.465V12.8958H151.47V0.207642Z" fill="white"/>
<path d="M77.141 9.33445C77.141 11.1664 75.7926 13.1376 72.0249 13.1376C69.294 13.1376 67.6685 12.0311 66.805 11.098L66.7012 10.9942L67.9115 9.57627L68.0495 9.71429C68.6723 10.3713 70.0207 11.4425 72.0945 11.4425C74.2721 11.4425 75.0672 10.4398 75.0672 9.47246C75.0672 8.12414 73.5112 7.74429 71.7135 7.29485C69.5701 6.7416 67.1494 6.15414 67.1494 3.62972C67.1494 1.52052 69.1548 0.0341797 71.9199 0.0341797C73.9253 0.0341797 75.5496 0.621639 76.7599 1.83195L76.8638 1.93576L75.6534 3.31829L75.5154 3.18027C74.6165 2.24718 73.2682 1.72814 71.7819 1.72814C70.2601 1.72814 69.189 2.45362 69.189 3.52591C69.189 4.5982 70.607 4.97804 72.2655 5.39328C74.4443 5.91114 77.141 6.56819 77.141 9.33445Z" fill="white"/>
<path d="M136.431 0C132.49 0 129.621 2.76625 129.621 6.56822C129.621 10.3702 132.49 13.1364 136.431 13.1364C140.372 13.1364 143.241 10.3702 143.241 6.56822C143.241 2.76625 140.372 0 136.431 0ZM136.431 11.4083C133.596 11.4083 131.695 9.43828 131.695 6.53402C131.695 3.62975 133.596 1.65975 136.431 1.65975C139.266 1.65975 141.167 3.62975 141.167 6.53402C141.167 9.40289 139.232 11.4083 136.431 11.4083Z" fill="white"/>
<path d="M162.982 0.207642H158.246V12.8958H162.982C167.097 12.8958 170 10.303 170 6.56943C170 2.83588 167.131 0.207642 162.982 0.207642ZM162.982 11.2007H160.251V1.9016H162.982C165.99 1.9016 167.926 3.73358 167.926 6.56825C167.926 9.3345 165.955 11.2007 162.982 11.2007Z" fill="white"/>
<path d="M120.562 7.81277C122.326 7.57094 123.916 6.36063 123.916 4.07921C123.916 1.7624 122.152 0.207642 119.56 0.207642H114.028V12.8958H116.034V7.98617H118.419L121.807 12.8958H124.192L120.562 7.81277ZM116.034 6.29221V1.9016H119.352C120.838 1.9016 121.841 2.80049 121.841 4.07921C121.841 5.39333 120.804 6.29221 119.352 6.29221H116.034Z" fill="white"/>
<path d="M82.2925 0.207642H92.7677V1.9016H88.5151V12.8946H86.5097V1.9016H82.2925V0.207642Z" fill="white"/>
<path d="M98.645 0.207642H107.736V1.9016H100.65V5.53135H107.598V7.22531H100.65V11.1323H107.736V12.8262H98.645V0.207642Z" fill="white"/>
<path d="M54.5644 0.0177002C50.6233 0.0177002 47.7544 2.78395 47.7544 6.58593C47.7544 10.3879 50.6233 13.1542 54.5644 13.1542C58.5056 13.1542 61.3745 10.3879 61.3745 6.58593C61.3745 2.78395 58.5056 0.0177002 54.5644 0.0177002ZM54.5644 11.426C51.7298 11.426 49.8282 9.45598 49.8282 6.55172C49.8282 3.64745 51.7298 1.67745 54.5644 1.67745C57.3991 1.67745 59.3007 3.64745 59.3007 6.55172C59.3007 9.4206 57.3649 11.426 54.5644 11.426Z" fill="white"/>
<rect x="176" width="30" height="13" rx="3" fill="url(#paint0_linear_2204_80)"/>
<path d="M184.085 6.742C184.709 7.012 185.021 7.513 185.021 8.245C185.021 8.833 184.823 9.274 184.427 9.568C184.031 9.856 183.464 10 182.726 10H180.476V3.736H182.807C183.449 3.736 183.944 3.874 184.292 4.15C184.646 4.426 184.823 4.834 184.823 5.374C184.823 6.016 184.577 6.472 184.085 6.742ZM181.448 4.627V6.355H182.708C183.08 6.355 183.353 6.286 183.527 6.148C183.701 6.004 183.788 5.773 183.788 5.455C183.788 5.137 183.707 4.921 183.545 4.807C183.383 4.687 183.104 4.627 182.708 4.627H181.448ZM182.726 9.109C183.182 9.109 183.506 9.043 183.698 8.911C183.89 8.773 183.986 8.527 183.986 8.173C183.986 7.825 183.884 7.582 183.68 7.444C183.482 7.306 183.161 7.237 182.717 7.237H181.448V9.109H182.726ZM187.75 4.627V6.418H190.477V7.255H187.75V9.109H190.675V10H186.778V3.736H190.675V4.627H187.75ZM193.894 4.663H192.049V3.736H196.711V4.663H194.866V10H193.894V4.663ZM201.639 8.452H198.768L198.192 10H197.22L199.614 3.736H200.838L203.232 10H202.215L201.639 8.452ZM201.324 7.624L200.208 4.636L199.083 7.624H201.324Z" fill="white"/>
<defs>
<linearGradient id="paint0_linear_2204_80" x1="176" y1="6.67484" x2="206" y2="6.67484" gradientUnits="userSpaceOnUse">
<stop stop-color="#2096D9"/>
<stop offset="1" stop-color="#5C35EE"/>
</linearGradient>
</defs>
</svg>
