<svg width="49" height="31" viewBox="0 0 49 31" fill="none" xmlns="http://www.w3.org/2000/svg">
<path d="M13.3259 3.30744C9.865 6.72998 9.549 12.1026 12.3773 15.8818L9.46609 18.7608C8.90018 19.3204 8.90018 20.2281 9.46609 20.7883C10.032 21.3479 10.9498 21.3479 11.5163 20.7883L14.4276 17.9093C18.2491 20.7063 23.682 20.3938 27.143 16.9713C30.9524 13.2041 30.9524 7.07459 27.143 3.30801C23.3336 -0.45857 17.1347 -0.459144 13.3259 3.30744ZM25.0927 14.9438C22.7653 17.2453 19.1705 17.5469 16.5103 15.8497L17.6595 14.7133C18.2254 14.1536 18.2254 13.246 17.6595 12.6858C17.0936 12.1261 16.1757 12.1261 15.6092 12.6858L14.46 13.8222C12.7438 11.1915 13.0488 7.63651 15.3762 5.33493C18.0549 2.68588 22.414 2.68588 25.0927 5.33493C27.7715 7.98398 27.7715 12.2947 25.0927 14.9438ZM16.2841 21.6272C16.85 22.1868 16.85 23.0945 16.2841 23.6547L10.1416 29.7291C9.57567 30.2887 8.65782 30.2887 8.09134 29.7291C7.52544 29.1695 7.52544 28.2618 8.09134 27.7016L14.2345 21.6272C14.8004 21.0675 15.7182 21.0675 16.2841 21.6272ZM0.424426 22.1472C-0.141475 21.5876 -0.141475 20.6799 0.424426 20.1197L6.56758 14.0447C7.13348 13.4851 8.05133 13.4851 8.61782 14.0447C9.18372 14.6043 9.18372 15.512 8.61782 16.0722L2.47466 22.1472C1.90818 22.7074 0.990907 22.7074 0.424426 22.1472Z" fill="white"/>
<rect x="26" y="14" width="23" height="9" rx="3" fill="url(#paint0_linear_2242_1119)"/>
<path d="M31.7331 18.466C32.2184 18.676 32.4611 19.0657 32.4611 19.635C32.4611 20.0923 32.3071 20.4353 31.9991 20.664C31.6911 20.888 31.2501 21 30.6761 21H28.9261V16.128H30.7391C31.2384 16.128 31.6234 16.2353 31.8941 16.45C32.1694 16.6647 32.3071 16.982 32.3071 17.402C32.3071 17.9013 32.1158 18.256 31.7331 18.466ZM29.6821 16.821V18.165H30.6621C30.9514 18.165 31.1638 18.1113 31.2991 18.004C31.4344 17.892 31.5021 17.7123 31.5021 17.465C31.5021 17.2177 31.4391 17.0497 31.3131 16.961C31.1871 16.8677 30.9701 16.821 30.6621 16.821H29.6821ZM30.6761 20.307C31.0308 20.307 31.2828 20.2557 31.4321 20.153C31.5814 20.0457 31.6561 19.8543 31.6561 19.579C31.6561 19.3083 31.5768 19.1193 31.4181 19.012C31.2641 18.9047 31.0144 18.851 30.6691 18.851H29.6821V20.307H30.6761ZM34.5835 16.821V18.214H36.7045V18.865H34.5835V20.307H36.8585V21H33.8275V16.128H36.8585V16.821H34.5835ZM39.362 16.849H37.927V16.128H41.553V16.849H40.118V21H39.362V16.849ZM45.3863 19.796H43.1533L42.7053 21H41.9493L43.8113 16.128H44.7633L46.6253 21H45.8343L45.3863 19.796ZM45.1413 19.152L44.2733 16.828L43.3983 19.152H45.1413Z" fill="white"/>
<defs>
<linearGradient id="paint0_linear_2242_1119" x1="26" y1="18.621" x2="49" y2="18.621" gradientUnits="userSpaceOnUse">
<stop stop-color="#2096D9"/>
<stop offset="1" stop-color="#5C35EE"/>
</linearGradient>
</defs>
</svg>
